<svg width="10" height="18" viewBox="0 0 10 18" fill="none" xmlns="http://www.w3.org/2000/svg">
<path d="M5.02521 18C4.74188 18 4.50438 17.9042 4.31271 17.7125C4.12105 17.5208 4.02521 17.2833 4.02521 17V15.85C3.27521 15.6833 2.61688 15.3917 2.05021 14.975C1.48355 14.5583 1.02521 13.975 0.675213 13.225C0.558547 12.9917 0.55438 12.7458 0.662713 12.4875C0.771047 12.2292 0.96688 12.0417 1.25021 11.925C1.48355 11.825 1.72521 11.8292 1.97521 11.9375C2.22521 12.0458 2.41688 12.225 2.55021 12.475C2.83355 12.975 3.19188 13.3542 3.62521 13.6125C4.05855 13.8708 4.59188 14 5.22521 14C5.90855 14 6.48771 13.8458 6.96271 13.5375C7.43771 13.2292 7.67521 12.75 7.67521 12.1C7.67521 11.5167 7.49188 11.0542 7.12521 10.7125C6.75855 10.3708 5.90855 9.98333 4.57521 9.55C3.14188 9.1 2.15855 8.5625 1.62521 7.9375C1.09188 7.3125 0.825213 6.55 0.825213 5.65C0.825213 4.56667 1.17521 3.725 1.87521 3.125C2.57521 2.525 3.29188 2.18333 4.02521 2.1V1C4.02521 0.716667 4.12105 0.479167 4.31271 0.2875C4.50438 0.0958333 4.74188 0 5.02521 0C5.30855 0 5.54605 0.0958333 5.73771 0.2875C5.92938 0.479167 6.02521 0.716667 6.02521 1V2.1C6.65855 2.2 7.20855 2.40417 7.67521 2.7125C8.14188 3.02083 8.52521 3.4 8.82521 3.85C8.97521 4.06667 9.00438 4.30833 8.91271 4.575C8.82105 4.84167 8.63355 5.03333 8.35021 5.15C8.11688 5.25 7.87521 5.25417 7.62521 5.1625C7.37521 5.07083 7.14188 4.90833 6.92521 4.675C6.70855 4.44167 6.45438 4.2625 6.16271 4.1375C5.87105 4.0125 5.50855 3.95 5.07521 3.95C4.34188 3.95 3.78355 4.1125 3.40021 4.4375C3.01688 4.7625 2.82521 5.16667 2.82521 5.65C2.82521 6.2 3.07521 6.63333 3.57521 6.95C4.07521 7.26667 4.94188 7.6 6.17521 7.95C7.32521 8.28333 8.19605 8.8125 8.78771 9.5375C9.37938 10.2625 9.67521 11.1 9.67521 12.05C9.67521 13.2333 9.32521 14.1333 8.62521 14.75C7.92521 15.3667 7.05855 15.75 6.02521 15.9V17C6.02521 17.2833 5.92938 17.5208 5.73771 17.7125C5.54605 17.9042 5.30855 18 5.02521 18Z" fill="white"/>
</svg>
