<svg width="18" height="18" viewBox="0 0 18 18" fill="none" xmlns="http://www.w3.org/2000/svg">
<path d="M12 18C10.0333 18 8.28333 17.4417 6.75 16.325C5.21667 15.2083 4.13333 13.7667 3.5 12H1C0.716667 12 0.479167 11.9042 0.2875 11.7125C0.0958333 11.5208 0 11.2833 0 11C0 10.7167 0.0958333 10.4792 0.2875 10.2875C0.479167 10.0958 0.716667 10 1 10H3.05C3.01667 9.81667 3 9.65 3 9.5V8.5C3 8.35 3.01667 8.18333 3.05 8H1C0.716667 8 0.479167 7.90417 0.2875 7.7125C0.0958333 7.52083 0 7.28333 0 7C0 6.71667 0.0958333 6.47917 0.2875 6.2875C0.479167 6.09583 0.716667 6 1 6H3.5C4.13333 4.23333 5.21667 2.79167 6.75 1.675C8.28333 0.558333 10.0333 0 12 0C12.9167 0 13.7875 0.125 14.6125 0.375C15.4375 0.625 16.2083 0.983333 16.925 1.45C17.225 1.65 17.3875 1.93333 17.4125 2.3C17.4375 2.66667 17.3083 2.99167 17.025 3.275C16.825 3.475 16.5708 3.59167 16.2625 3.625C15.9542 3.65833 15.6583 3.59167 15.375 3.425C14.875 3.14167 14.3417 2.91667 13.775 2.75C13.2083 2.58333 12.6167 2.5 12 2.5C10.75 2.5 9.6125 2.82083 8.5875 3.4625C7.5625 4.10417 6.78333 4.95 6.25 6H11C11.2833 6 11.5208 6.09583 11.7125 6.2875C11.9042 6.47917 12 6.71667 12 7C12 7.28333 11.9042 7.52083 11.7125 7.7125C11.5208 7.90417 11.2833 8 11 8H5.6C5.56667 8.18333 5.54167 8.35 5.525 8.5C5.50833 8.65 5.5 8.81667 5.5 9C5.5 9.18333 5.50833 9.35 5.525 9.5C5.54167 9.65 5.56667 9.81667 5.6 10H11C11.2833 10 11.5208 10.0958 11.7125 10.2875C11.9042 10.4792 12 10.7167 12 11C12 11.2833 11.9042 11.5208 11.7125 11.7125C11.5208 11.9042 11.2833 12 11 12H6.25C6.78333 13.05 7.5625 13.8958 8.5875 14.5375C9.6125 15.1792 10.75 15.5 12 15.5C12.6 15.5 13.1917 15.4167 13.775 15.25C14.3583 15.0833 14.8917 14.8583 15.375 14.575C15.6583 14.4083 15.95 14.3375 16.25 14.3625C16.55 14.3875 16.8083 14.5083 17.025 14.725C17.3083 15.0083 17.4375 15.3333 17.4125 15.7C17.3875 16.0667 17.225 16.35 16.925 16.55C16.2083 17.0167 15.4375 17.375 14.6125 17.625C13.7875 17.875 12.9167 18 12 18Z" fill="white"/>
</svg>
