<svg width="22" height="14" viewBox="0 0 22 14" fill="none" xmlns="http://www.w3.org/2000/svg">
<path d="M1.40006 13C1.15006 12.8667 0.979228 12.6708 0.887561 12.4125C0.795895 12.1542 0.816728 11.9 0.950061 11.65L6.05006 1.44999C6.18339 1.19999 6.37923 1.02915 6.63756 0.937488C6.89589 0.845822 7.15006 0.866655 7.40006 0.999988C7.65006 1.13332 7.8209 1.32915 7.91256 1.58749C8.00423 1.84582 7.9834 2.09999 7.85006 2.34999L2.75006 12.55C2.61673 12.8 2.42089 12.9708 2.16256 13.0625C1.90423 13.1542 1.65006 13.1333 1.40006 13ZM8.00006 13C7.75006 12.8667 7.57923 12.6708 7.48756 12.4125C7.3959 12.1542 7.41673 11.9 7.55006 11.65L12.6501 1.44999C12.7834 1.19999 12.9792 1.02915 13.2376 0.937488C13.4959 0.845822 13.7501 0.866655 14.0001 0.999988C14.2501 1.13332 14.4209 1.32915 14.5126 1.58749C14.6042 1.84582 14.5834 2.09999 14.4501 2.34999L9.35006 12.55C9.21673 12.8 9.0209 12.9708 8.76256 13.0625C8.50423 13.1542 8.25006 13.1333 8.00006 13ZM14.6001 13C14.3501 12.8667 14.1792 12.6708 14.0876 12.4125C13.9959 12.1542 14.0167 11.9 14.1501 11.65L19.2501 1.44999C19.3834 1.19999 19.5792 1.02915 19.8376 0.937488C20.0959 0.845822 20.3501 0.866655 20.6001 0.999988C20.8501 1.13332 21.0209 1.32915 21.1126 1.58749C21.2042 1.84582 21.1834 2.09999 21.0501 2.34999L15.9501 12.55C15.8167 12.8 15.6209 12.9708 15.3626 13.0625C15.1042 13.1542 14.8501 13.1333 14.6001 13Z" fill="white"/>
</svg>
