<svg width="14" height="18" viewBox="0 0 14 18" fill="none" xmlns="http://www.w3.org/2000/svg">
<path d="M3 18C2.71667 18 2.47917 17.9042 2.2875 17.7125C2.09583 17.5208 2 17.2833 2 17V15H1C0.716667 15 0.479167 14.9042 0.2875 14.7125C0.0958333 14.5208 0 14.2833 0 14C0 13.7167 0.0958333 13.4792 0.2875 13.2875C0.479167 13.0958 0.716667 13 1 13H2V11H1C0.716667 11 0.479167 10.9042 0.2875 10.7125C0.0958333 10.5208 0 10.2833 0 10C0 9.71667 0.0958333 9.47917 0.2875 9.2875C0.479167 9.09583 0.716667 9 1 9H2V1C2 0.716667 2.09583 0.479167 2.2875 0.2875C2.47917 0.0958333 2.71667 0 3 0H8.5C10.0333 0 11.3333 0.533333 12.4 1.6C13.4667 2.66667 14 3.96667 14 5.5C14 7.03333 13.4667 8.33333 12.4 9.4C11.3333 10.4667 10.0333 11 8.5 11H4V13H7C7.28333 13 7.52083 13.0958 7.7125 13.2875C7.90417 13.4792 8 13.7167 8 14C8 14.2833 7.90417 14.5208 7.7125 14.7125C7.52083 14.9042 7.28333 15 7 15H4V17C4 17.2833 3.90417 17.5208 3.7125 17.7125C3.52083 17.9042 3.28333 18 3 18ZM4 9H8.5C9.46667 9 10.2917 8.65833 10.975 7.975C11.6583 7.29167 12 6.46667 12 5.5C12 4.53333 11.6583 3.70833 10.975 3.025C10.2917 2.34167 9.46667 2 8.5 2H4V9Z" fill="#F5F5F5"/>
</svg>
